<?xml version="1.0" encoding="utf-8" ?><svg xmlns="http://www.w3.org/2000/svg" xmlns:xlink="http://www.w3.org/1999/xlink" width="426" height="426" viewBox="0 0 426 426"><defs><linearGradient id="gradient_0" gradientUnits="userSpaceOnUse" x1="220.13191" y1="402.39069" x2="238.80896" y2="162.23592"><stop offset="0" stop-color="#02433C"/><stop offset="1" stop-color="#049C5F"/></linearGradient></defs><path fill="url(#gradient_0)" d="M275.599 225.439C281.861 219.738 286.461 214.397 291.156 207.304C301.884 191.098 309.153 163.708 333.801 168.176C333.099 171.392 331.577 175.883 330.597 179.193C330.697 179.159 330.797 179.125 330.896 179.092C335.982 175.211 340.893 171.504 347.531 170.724C352.129 170.184 356.106 171.666 360.388 173.454L360.639 173.562C356.274 178.851 351.861 183.655 347.784 189.289C322.109 224.778 296.84 267.656 253.139 282.799C224.273 292.801 184.647 292.695 170.596 325.446C159.665 350.923 173.963 377.316 193.832 393.383C197.976 396.734 202.701 399.652 206.673 403.008C199.446 400.709 192.45 398.452 185.481 395.437C157.98 383.539 132.069 363.959 118.001 336.982C106.933 315.63 104.36 290.025 111.445 266.992C120.551 237.388 146.227 217.213 175.767 210.213C189.823 206.882 203.473 206.771 217.547 203.722C222.385 202.633 227.168 201.317 231.883 199.778C238.208 197.69 250.515 191.591 256.819 193.668C266.746 195.767 267.058 207.936 260.952 214.093C250.021 227.486 230.275 228.435 215.349 234.655C209.317 237.169 205.79 239.609 200.891 243.841L201.275 243.769C205.525 242.994 216.5 243.333 221.496 243.257C241.65 242.954 259.766 238.453 275.599 225.439Z"/><path fill="#2BAF68" d="M275.599 225.439C281.861 219.738 286.461 214.397 291.156 207.304C301.884 191.098 309.153 163.708 333.801 168.176C333.099 171.392 331.577 175.883 330.597 179.193C330.464 180.022 328.584 184.527 328.117 185.813C320.891 205.69 310.982 225.599 295.311 240.202C295.162 240.295 295.013 240.389 294.863 240.483L294.684 240.265C294.936 239.691 294.998 239.464 295.425 238.986C295.168 238.711 295.31 238.821 295.008 238.646C293.993 233.79 294.413 233.06 289.745 229.852C286.465 227.597 284.98 229.518 281.673 228.704C279.772 228.236 281.235 227.045 279.727 226.602C278.76 226.318 277.052 226.423 276.398 226.042C276.887 225.45 277.304 224.97 277.832 224.412C276.32 225.038 277.097 225.284 275.599 225.439Z"/><path fill="#07945D" d="M256.819 193.668C266.746 195.767 267.058 207.936 260.952 214.093L260.534 213.938C259.859 214.123 259.829 214.148 259.096 214.164L258.746 213.828L259.137 212.877L258.927 212.521C258.685 212.626 258.149 212.874 258.048 212.777C256.999 211.777 256.751 206.479 255.93 205.464C254.836 204.114 255.519 203.731 254.586 202.958C253.367 203.122 252.994 203.8 252.924 204.847C251.472 205.066 248.128 202.4 247.53 200.984C246.667 200.886 246.282 200.402 246.018 199.615L246.264 199.122C247.153 199.185 249.004 198.234 249.924 197.83C250.187 197.455 250.211 197.4 250.347 196.978L250.457 196.628C252.217 195.425 255.988 197.036 257.55 194.289L256.8 193.991L256.819 193.668Z"/><path fill="#2BAF68" d="M185.567 62.7454C186.13 62.144 187.618 59.6443 188.132 58.8175C196.095 45.998 206.561 35.0582 217.722 24.9518C220.371 27.0674 223.45 30.2398 225.913 32.694C235.004 41.7505 243.486 51.556 250.52 62.3136C257.077 57.1616 266.522 53.4604 274.37 50.7992C275.843 50.2996 278.432 49.4302 279.993 49.602C280.519 49.6599 280.805 50.2878 281.048 50.811C286.55 62.6425 291.1 75.5644 293.449 88.4094C294.348 93.3289 294.55 97.8289 294.817 102.7C301.691 100.687 308.509 99.8719 315.646 100.443C317.2 100.567 319.81 100.482 320.896 101.699C321.229 103.645 320.172 107.275 319.696 109.312C316.672 122.249 310.887 135.659 303.375 146.6C297.786 154.74 285.552 167.261 276.509 171.605C268.963 176.728 254.268 182.331 245.257 183.099C243.569 183.705 240.625 184.864 238.983 185.279C235.615 186.523 233.407 186.886 229.827 187.046C228.589 186.087 222.42 184.564 220.528 183.795C218.56 182.994 217.413 182.496 215.445 181.438C215.148 181.703 214.585 182.242 214.28 182.44C215.227 183.123 215.7 182.657 216.703 183.514L216.738 183.992L216.372 184.256C214.98 184.218 213.14 183.403 211.709 183.04C184.125 176.052 157.82 158.107 147.336 130.777C145.85 126.904 144.838 123.194 143.767 119.207C140.044 99.3529 142.095 81.6173 148.51 62.4817C149.766 58.7378 151.907 52.7123 153.794 49.3277C164.345 51.4615 176.465 57.0496 185.567 62.7454Z"/><path fill="#FEFEFE" d="M199.227 88.9142C201.895 91.1097 204.408 94.8632 208.153 97.915C215.935 104.256 223.316 106.331 231.635 110.968C232.685 110.212 232.915 109.885 233.35 108.701L233.658 108.881C235.976 110.252 239.362 113.883 241.07 113.714C242.36 112.677 241.895 110.975 241.672 109.488C244.47 108.61 247.103 107.993 249.755 109.786C252.08 107.188 253.186 106.446 256.478 105.271C261.673 106.226 262.34 108.614 266.218 111.717C266.855 114.194 269.611 117.605 271.987 115.007C272.247 117.663 272.388 122.328 272.755 124.578C273.88 123.76 274.087 122.07 274.815 120.731C279.575 111.974 285.046 106.034 294.617 102.91L294.817 102.7C301.691 100.687 308.509 99.8719 315.646 100.443C317.2 100.567 319.81 100.482 320.896 101.699C321.229 103.645 320.172 107.275 319.696 109.312C316.672 122.249 310.887 135.659 303.375 146.6C297.786 154.74 285.552 167.261 276.509 171.605C268.963 176.728 254.268 182.331 245.257 183.099C243.569 183.705 240.625 184.864 238.983 185.279C235.615 186.523 233.407 186.886 229.827 187.046C228.589 186.087 222.42 184.564 220.528 183.795C218.56 182.994 217.413 182.496 215.445 181.438C205.456 175.818 200.243 170.181 194.568 160.352C194.089 159.58 193.45 158.084 193.046 157.211C189.631 149.866 187.968 137.835 188.994 129.809C190.937 129.063 192.675 128.021 194.906 127.225C197.823 126.185 205.405 126.047 207.047 124.231C206.771 123.306 206.641 123.442 206.935 122.763C208.583 121.967 211.225 122.582 213.119 122.834C207.783 120.688 201.601 117.027 200.052 110.282C199.946 109.822 200.34 109.553 200.645 109.274C202.364 108.842 203.758 109.646 205.438 110.307C197.322 103.404 197.409 99.15 199.227 88.9142Z"/><defs><linearGradient id="gradient_1" gradientUnits="userSpaceOnUse" x1="319.9527" y1="101.23713" x2="266.62488" y2="161.54706"><stop offset="0" stop-color="#56C373"/><stop offset="1" stop-color="#9BDAA2"/></linearGradient></defs><path fill="url(#gradient_1)" d="M294.817 102.7C301.691 100.687 308.509 99.8719 315.646 100.443C317.2 100.567 319.81 100.482 320.896 101.699C321.229 103.645 320.172 107.275 319.696 109.312C316.672 122.249 310.887 135.659 303.375 146.6C297.786 154.74 285.552 167.261 276.509 171.605C268.963 176.728 254.268 182.331 245.257 183.099C243.569 183.705 240.625 184.864 238.983 185.279L238.839 184.933C239.197 183.763 245.151 180.877 246.891 179.534C251.348 176.095 257.783 169.374 260.654 164.577C261.477 164.008 263.671 159.838 264.21 158.807C264.845 157.91 266.067 155.215 266.521 154.163C270.774 144.311 271.589 135.029 272.755 124.578C273.88 123.76 274.087 122.07 274.815 120.731C279.575 111.974 285.046 106.034 294.617 102.91L294.817 102.7Z"/><path fill="#2BAF68" d="M272.755 124.578C273.88 123.76 274.087 122.07 274.815 120.731C279.575 111.974 285.046 106.034 294.617 102.91C293.81 125.201 291.056 140.77 276.729 158.808C273.798 162.498 270.853 164.821 268.047 167.961C269.439 167.471 270.556 166.234 271.574 165.174C273.235 166.388 273.776 167.02 275.185 168.396C275.606 168.806 276.905 168.47 277.552 169.33L277.37 169.586C276.769 170.45 276.607 170.566 276.509 171.605C268.963 176.728 254.268 182.331 245.257 183.099C243.569 183.705 240.625 184.864 238.983 185.279L238.839 184.933C239.197 183.763 245.151 180.877 246.891 179.534C251.348 176.095 257.783 169.374 260.654 164.577C261.477 164.008 263.671 159.838 264.21 158.807C264.845 157.91 266.067 155.215 266.521 154.163C270.774 144.311 271.589 135.029 272.755 124.578Z"/><path fill="#A0DBAA" d="M268.047 167.961C269.439 167.471 270.556 166.234 271.574 165.174C273.235 166.388 273.776 167.02 275.185 168.396C275.606 168.806 276.905 168.47 277.552 169.33L277.37 169.586C276.769 170.45 276.607 170.566 276.509 171.605C268.963 176.728 254.268 182.331 245.257 183.099C247.762 180.984 253.005 178.785 256.024 176.873C260.253 174.196 264.211 171.162 268.047 167.961Z"/><defs><linearGradient id="gradient_2" gradientUnits="userSpaceOnUse" x1="227.22807" y1="160.34987" x2="224.7025" y2="185.54414"><stop offset="0" stop-color="#AFE1B7"/><stop offset="1" stop-color="#F3FAEC"/></linearGradient></defs><path fill="url(#gradient_2)" d="M225.004 150.905C226.142 150.651 226.443 149.625 227.466 148.711C232.402 152.148 245.166 151.372 251.342 153.106C253.575 153.733 263.553 156.813 264.21 158.807C263.671 159.838 261.477 164.008 260.654 164.577C257.783 169.374 251.348 176.095 246.891 179.534C245.151 180.877 239.197 183.763 238.839 184.933L238.983 185.279C235.615 186.523 233.407 186.886 229.827 187.046C228.589 186.087 222.42 184.564 220.528 183.795C218.56 182.994 217.413 182.496 215.445 181.438C205.456 175.818 200.243 170.181 194.568 160.352C194.089 159.58 193.45 158.084 193.046 157.211C196.323 153.044 205.096 152.817 206.182 151.76C206.817 152.336 207.102 152.495 207.879 152.868L208.102 153.386C207.752 153.947 207.503 154.087 207.589 154.606C207.797 155.852 209.75 157.485 210.708 158.402C216.028 162.938 215.931 161.13 220.32 157.497L220.616 157.256C220.916 156.414 224.261 151.738 225.004 150.905Z"/><path fill="#A0DBAA" d="M225.004 150.905C226.142 150.651 226.443 149.625 227.466 148.711C232.402 152.148 245.166 151.372 251.342 153.106C253.575 153.733 263.553 156.813 264.21 158.807C263.671 159.838 261.477 164.008 260.654 164.577C260.538 164.519 260.259 164.498 260.111 164.477C259.835 164.875 259.752 164.994 259.418 165.342C257.331 164.854 254.441 164.193 252.377 163.914C248.34 163.37 220.414 161.68 219.129 159.961C219.344 158.758 220.273 158.681 220.616 157.256C220.916 156.414 224.261 151.738 225.004 150.905Z"/><path fill="#A0DBAA" d="M206.182 151.76C206.817 152.336 207.102 152.495 207.879 152.868L208.102 153.386C207.752 153.947 207.503 154.087 207.589 154.606C207.797 155.852 209.75 157.485 210.708 158.402C205.724 160.984 197.065 155.902 194.568 160.352C194.089 159.58 193.45 158.084 193.046 157.211C196.323 153.044 205.096 152.817 206.182 151.76Z"/><defs><linearGradient id="gradient_3" gradientUnits="userSpaceOnUse" x1="258.74789" y1="110.50299" x2="246.1965" y2="154.51187"><stop offset="0" stop-color="#51BE78"/><stop offset="1" stop-color="#95D8A5"/></linearGradient></defs><path fill="url(#gradient_3)" d="M266.218 111.717C266.855 114.194 269.611 117.605 271.987 115.007C272.247 117.663 272.388 122.328 272.755 124.578C271.589 135.029 270.774 144.311 266.521 154.163C266.067 155.215 264.845 157.91 264.21 158.807C263.553 156.813 253.575 153.733 251.342 153.106C245.166 151.372 232.402 152.148 227.466 148.711C226.443 149.625 226.142 150.651 225.004 150.905C225.485 150.13 226.458 149.063 227.076 148.338C230.987 148.135 235.178 147.234 238.675 146.055C252.168 141.507 254.469 130.02 258.531 118.237C259.088 116.622 261.413 113.56 262.982 112.752C263.555 112.457 265.397 112.012 266.218 111.717Z"/><defs><linearGradient id="gradient_4" gradientUnits="userSpaceOnUse" x1="205.15793" y1="125.41531" x2="210.41704" y2="152.63484"><stop offset="0" stop-color="#54BC82"/><stop offset="1" stop-color="#8ED7A4"/></linearGradient></defs><path fill="url(#gradient_4)" d="M207.047 124.231C212.4 130.977 218.807 134.507 227.442 134.574C223.951 140.032 221.539 142.837 214.751 144.288C212.003 144.875 207.035 145.471 204.245 145.543C204.785 147.902 205.369 149.49 206.182 151.76C205.096 152.817 196.323 153.044 193.046 157.211C189.631 149.866 187.968 137.835 188.994 129.809C190.937 129.063 192.675 128.021 194.906 127.225C197.823 126.185 205.405 126.047 207.047 124.231Z"/><path fill="#A0DBAA" d="M241.672 109.488C244.47 108.61 247.103 107.993 249.755 109.786C246.888 113.467 242.314 120.36 237.576 115.953C235.819 114.318 233.578 112.282 231.635 110.968C232.685 110.212 232.915 109.885 233.35 108.701L233.658 108.881C235.976 110.252 239.362 113.883 241.07 113.714C242.36 112.677 241.895 110.975 241.672 109.488Z"/><path fill="#03503D" d="M153.794 49.3277C164.345 51.4615 176.465 57.0496 185.567 62.7454C182.554 67.7277 179.886 72.1785 177.426 77.5308C169.473 94.8333 164.714 116.215 169.263 135.059C173.11 150.995 183.611 165.692 197.68 174.125C202.322 176.907 209.297 180.135 214.28 182.44C215.227 183.123 215.7 182.657 216.703 183.514L216.738 183.992L216.372 184.256C214.98 184.218 213.14 183.403 211.709 183.04C184.125 176.052 157.82 158.107 147.336 130.777C145.85 126.904 144.838 123.194 143.767 119.207C140.044 99.3529 142.095 81.6173 148.51 62.4817C149.766 58.7378 151.907 52.7123 153.794 49.3277Z"/><path fill="#07945D" d="M250.52 62.3136C257.077 57.1616 266.522 53.4604 274.37 50.7992C275.843 50.2996 278.432 49.4302 279.993 49.602C280.519 49.6599 280.805 50.2878 281.048 50.811C286.55 62.6425 291.1 75.5644 293.449 88.4094C294.348 93.3289 294.55 97.8289 294.817 102.7L294.617 102.91C285.046 106.034 279.575 111.974 274.815 120.731C274.087 122.07 273.88 123.76 272.755 124.578C272.388 122.328 272.247 117.663 271.987 115.007C270.291 96.9306 260.483 77.1834 250.52 62.3136Z"/><path fill="#FEFEFE" d="M219.897 101.773C219.53 99.8911 218.141 95.6694 220.904 95.3472L221.258 95.3094C221.517 94.3841 220.898 93.2356 220.847 92.2501C220.677 88.9738 222.749 85.6764 224.506 83.1961C226.524 88.5205 228.271 91.6482 231.877 96.2288C235.544 100.887 239.675 103.791 241.672 109.488C241.895 110.975 242.36 112.677 241.07 113.714C239.362 113.883 235.976 110.252 233.658 108.881L233.35 108.701C229.901 106.556 223.694 103.537 219.897 101.773Z"/><path fill="#03503D" d="M274.936 283.213C310.298 266.594 338.454 239.415 352.039 202.251C353.01 199.594 354.156 195.028 355.016 192.942C356.529 201.539 357.577 209.906 357.454 218.661C357.117 242.74 348.842 268.493 334.932 288.142C318.819 310.901 289.975 333.525 265.984 347.797C264.124 348.928 262.258 350.13 260.415 351.368C243.905 362.454 224.19 374.102 217.327 393.942C216.392 396.645 216.044 399.783 215.671 402.58C188.951 384.876 166.841 344.885 195.579 317.947C209.206 305.174 227.989 300.657 245.157 294.792C255.01 291.426 265.468 287.681 274.936 283.213Z"/><defs><linearGradient id="gradient_5" gradientUnits="userSpaceOnUse" x1="277.86249" y1="258.46619" x2="333.76871" y2="289.97534"><stop offset="0" stop-color="#00533D"/><stop offset="1" stop-color="#059B5E"/></linearGradient></defs><path fill="url(#gradient_5)" d="M274.936 283.213C310.298 266.594 338.454 239.415 352.039 202.251C353.01 199.594 354.156 195.028 355.016 192.942C356.529 201.539 357.577 209.906 357.454 218.661C357.117 242.74 348.842 268.493 334.932 288.142C318.819 310.901 289.975 333.525 265.984 347.797C265.511 347.071 265.052 346.436 264.542 345.736C258.324 342.617 253.275 346.202 247.449 345.34C243.829 344.803 237.329 340.979 234.034 339.122C234.261 334.598 237.37 331.787 238.785 327.942C238.563 327.909 238.342 327.876 238.12 327.842C239.71 326.519 251.585 320.989 253.951 319.835C266.702 313.618 278.194 307.996 289.91 299.798C287.949 297.588 286.572 294.27 284.883 292.527C281.447 288.982 278.458 286.938 274.936 283.213Z"/><defs><linearGradient id="gradient_6" gradientUnits="userSpaceOnUse" x1="59.821163" y1="196.40486" x2="125.23183" y2="228.90179"><stop offset="0" stop-color="#033B2F"/><stop offset="1" stop-color="#015742"/></linearGradient></defs><path fill="url(#gradient_6)" d="M59.2413 195.682C58.7414 170.13 67.242 145.216 88.6148 129.742C101.95 120.088 116.843 115.699 133.247 117.606C136.77 118.015 140.258 118.626 143.767 119.207C144.838 123.194 145.85 126.904 147.336 130.777C157.82 158.107 184.125 176.052 211.709 183.04C213.14 183.403 214.98 184.218 216.372 184.256L216.738 183.992L216.703 183.514C215.7 182.657 215.227 183.123 214.28 182.44C214.585 182.242 215.148 181.703 215.445 181.438C217.413 182.496 218.56 182.994 220.528 183.795C222.42 184.564 228.589 186.087 229.827 187.046C226.877 187.562 222.371 187.537 219.403 187.705C197.269 188.956 179.789 177.869 161.152 167.844C155.646 164.883 148.429 161.499 141.958 161.451C103.568 161.14 100.437 199.164 117.861 223.204C118.303 223.814 120.802 226.968 120.533 227.302C104.828 246.743 95.8709 264.466 95.981 291.143C89.9286 284.563 86.0223 278.599 81.5162 270.874C67.7214 247.224 59.3619 223.137 59.2413 195.682Z"/><path fill="#07945D" d="M59.2413 195.682C58.7414 170.13 67.242 145.216 88.6148 129.742C101.95 120.088 116.843 115.699 133.247 117.606C136.77 118.015 140.258 118.626 143.767 119.207C144.838 123.194 145.85 126.904 147.336 130.777C157.82 158.107 184.125 176.052 211.709 183.04C213.14 183.403 214.98 184.218 216.372 184.256L216.738 183.992L216.703 183.514C215.7 182.657 215.227 183.123 214.28 182.44C214.585 182.242 215.148 181.703 215.445 181.438C217.413 182.496 218.56 182.994 220.528 183.795C222.42 184.564 228.589 186.087 229.827 187.046C226.877 187.562 222.371 187.537 219.403 187.705C197.269 188.956 179.789 177.869 161.152 167.844C155.646 164.883 148.429 161.499 141.958 161.451C138.029 157.688 123.395 157.19 117.869 157.125C95.7466 156.866 74.3805 167.67 63.9716 187.63C62.7344 190.003 61.7015 192.587 60.3627 194.91C60.1977 195.196 59.5857 195.478 59.2413 195.682Z"/></svg>